<?xml version="1.0" encoding="UTF-8"?>
<!DOCTYPE svg PUBLIC "-//W3C//DTD SVG 1.1//EN" "http://www.w3.org/Graphics/SVG/1.1/DTD/svg11.dtd">
<svg version="1.1" xmlns="http://www.w3.org/2000/svg" xmlns:xlink="http://www.w3.org/1999/xlink" x="0" y="0" width="200" height="200" viewBox="0, 0, 200, 200">
  <g id="Layer_1">
    <g>
      <path d="M99.31,188.726 C89.311,188.726 78.485,168.958 73.6,137.736 C81.571,138.507 90.14,138.936 99.31,138.936 L99.31,129.709 C90.271,129.723 81.241,129.236 72.257,128.252 C70.317,110.278 70.317,92.149 72.257,74.175 C90.229,72.236 108.36,72.236 126.334,74.175 C127.318,83.159 127.804,92.191 127.791,101.228 L137.046,101.228 C137.046,92.001 136.618,83.431 135.846,75.518 C167.069,80.46 186.837,91.287 186.837,101.228 L186.838,101.228 C186.835,107.216 186.222,113.189 185.01,119.053 L194.066,120.938 L194.066,120.939 C198.386,100.106 195.713,78.431 186.46,59.271 C177.208,40.112 161.894,24.54 142.89,14.969 C123.889,5.4 102.259,2.366 81.357,6.339 C60.456,10.312 41.448,21.069 27.284,36.945 C13.119,52.82 4.585,72.924 3.009,94.14 C1.43,115.357 6.897,136.503 18.56,154.297 C30.223,172.092 47.43,185.541 67.515,192.561 C87.6,199.581 109.439,199.778 129.646,193.123 L126.789,184.353 L126.79,184.353 C117.922,187.268 108.643,188.744 99.309,188.724 z M185.007,83.316 C174.894,75.604 157.954,69.033 134.701,65.777 C131.387,42.524 124.874,25.585 117.162,15.471 C133.837,18.982 149.129,27.268 161.177,39.32 C173.224,51.372 181.505,66.668 185.008,83.345 z M99.31,13.643 C109.308,13.643 120.134,33.412 125.019,64.634 C117.048,63.863 108.479,63.434 99.31,63.434 C90.14,63.434 81.513,63.862 73.6,64.634 C78.484,33.41 89.311,13.671 99.31,13.671 z M81.456,15.472 C73.744,25.585 67.172,42.524 63.917,65.778 C40.664,69.091 23.725,75.605 13.611,83.317 C17.121,66.654 25.402,51.372 37.443,39.333 C49.483,27.291 64.764,19.012 81.427,15.5 z M62.773,75.459 C62.002,83.43 61.573,92 61.573,101.169 C61.573,110.338 62.001,118.966 62.773,126.878 C31.55,121.936 11.783,111.109 11.783,101.169 C11.783,91.227 31.521,80.373 62.773,75.43 z M13.611,119.05 C23.724,126.762 40.664,133.333 63.917,136.589 C67.231,159.842 73.744,176.781 81.456,186.895 C64.783,183.39 49.491,175.109 37.444,163.061 C25.398,151.014 17.117,135.722 13.612,119.049 z" fill="#FFFFFF"/>
      <path d="M123.277,116.112 L145.074,196.811 L159.585,159.902 L202.92,153.674 z" fill="#FFFFFF"/>
    </g>
  </g>
</svg>
